<?xml version="1.0" encoding="UTF-8"?>
<svg width="365" height="560" xmlns="http://www.w3.org/2000/svg" xmlns:svg="http://www.w3.org/2000/svg">

 <g>
  <title>Layer 1</title>
  <g id="svg_1">
   <path id="svg_2" d="m182.899994,551.700012c0,0.099976 0.199997,0.299988 0.199997,0.299988s175.199997,-269 175.199997,-357.399994c0,-130.100006 -88.800018,-186.699996 -175.399994,-186.899996c-86.599991,0.19999 -175.399994,56.79999 -175.399994,186.899996c0,88.399994 175.300003,357.399994 175.300003,357.399994s0.099991,-0.299988 0.099991,-0.299988zm-60.699997,-364.500015c0,-33.599991 27.199997,-60.799995 60.800003,-60.799995c33.599991,0 60.800003,27.200005 60.800003,60.799995s-27.300003,60.800003 -60.900009,60.800003c-33.5,0 -60.699997,-27.199997 -60.699997,-60.800003z" fill="#263232"/>
  </g>
 </g>
</svg>